# xmcd
#
# Track frame offsets: 
#        150
#        13348
#        28898
#        42173
#        58915
#        77763
#        92553
#        105073
#        125125
#        141810
#        152528
#
# Disc length: 2179 seconds
#
# Revision: 3
# Processed by: cddbd v1.5.2PL0 Copyright (c) Steve Scherf et al.
# Submitted via: ExactAudioCopy v1.0b3
#
DISCID=8a08810b
DTITLE=Krauss, Alison - Too Late To Cry
DYEAR=1987
DGENRE=Country
TTITLE0=Too Late To Cry
TTITLE1=Foolish Heart
TTITLE2=Song For Life
TTITLE3=Dusty Miller
TTITLE4=If I Give My Heart
TTITLE5=In Your Eyes
TTITLE6=Don't Follow Me
TTITLE7=Gentle River
TTITLE8=On The Borderline
TTITLE9=Forgotten Pictures
TTITLE10=Sleep On
EXTD=
EXTT0=
EXTT1=
EXTT2=
EXTT3=
EXTT4=
EXTT5=
EXTT6=
EXTT7=
EXTT8=
EXTT9=
EXTT10=
PLAYORDER=
